<svg width="16" height="16" viewBox="0 0 16 16" fill="none" xmlns="http://www.w3.org/2000/svg">
<path d="M13.9312 2.0688C13.6311 1.76885 13.2242 1.60034 12.8 1.60034C12.3757 1.60034 11.9688 1.76885 11.6688 2.0688L5.59998 8.1376V10.4H7.86238L13.9312 4.3312C14.2311 4.03116 14.3996 3.62426 14.3996 3.2C14.3996 2.77574 14.2311 2.36884 13.9312 2.0688Z" fill="white"/>
<path fill-rule="evenodd" clip-rule="evenodd" d="M1.59998 4.80001C1.59998 4.37567 1.76855 3.9687 2.0686 3.66864C2.36866 3.36858 2.77563 3.20001 3.19998 3.20001H6.39998C6.61215 3.20001 6.81563 3.2843 6.96566 3.43433C7.11569 3.58436 7.19998 3.78784 7.19998 4.00001C7.19998 4.21219 7.11569 4.41567 6.96566 4.5657C6.81563 4.71573 6.61215 4.80001 6.39998 4.80001H3.19998V12.8H11.2V9.60001C11.2 9.38784 11.2843 9.18436 11.4343 9.03433C11.5843 8.8843 11.7878 8.80001 12 8.80001C12.2121 8.80001 12.4156 8.8843 12.5657 9.03433C12.7157 9.18436 12.8 9.38784 12.8 9.60001V12.8C12.8 13.2244 12.6314 13.6313 12.3313 13.9314C12.0313 14.2314 11.6243 14.4 11.2 14.4H3.19998C2.77563 14.4 2.36866 14.2314 2.0686 13.9314C1.76855 13.6313 1.59998 13.2244 1.59998 12.8V4.80001Z" fill="white"/>
</svg>
